<?xml version="1.0" encoding="utf-8"?>
<!-- Svg Vector Icons : http://www.onlinewebfonts.com/icon -->
<!DOCTYPE svg PUBLIC "-//W3C//DTD SVG 1.1//EN" "http://www.w3.org/Graphics/SVG/1.1/DTD/svg11.dtd">
<svg version="1.1" xmlns="http://www.w3.org/2000/svg" xmlns:xlink="http://www.w3.org/1999/xlink" x="0px" y="0px" viewBox="0 0 1000 1000" enable-background="new 0 0 1000 1000" xml:space="preserve">
<metadata> Svg Vector Icons : http://www.onlinewebfonts.com/icon </metadata>
<g><g transform="translate(0.000000,512.000000) scale(0.100000,-0.100000)"><path d="M2643.4,4993.4c-440.8-61.3-881.7-231.9-1270.8-494.5c-226.2-153.3-598-525.2-751.4-751.3C75,2936.8-49.6,1942,283.9,1045c256.8-690,787.8-1280.3,1449-1613.9c216.6-107.3,563.5-224.3,799.3-268.3c251.1-46,783.9-46,1035,1.9c596.1,109.3,1128.9,391,1564,826.1c594.2,594.2,900.8,1374.3,864.4,2194.6c-15.3,310.5-55.6,530.9-147.6,806.9c-153.3,460-369.9,808.8-718.8,1159.6C4468.1,4815.2,3569.1,5119.9,2643.4,4993.4z M2325.2,3126.6c141.8-90.1,207-281.8,147.6-437c-26.8-72.8-128.4-176.3-203.2-208.9c-233.8-99.7-504.1,78.6-504.1,331.6c0,222.3,145.7,368,366.1,369.9C2215.9,3182.2,2254.3,3170.7,2325.2,3126.6z M4138.4,3145.7c126.5-65.2,195.5-178.3,195.5-320.1c0-320.1-364.2-490.7-598-279.8c-136.1,122.7-166.7,279.8-90.1,440.8C3730.1,3161.1,3962.1,3235.8,4138.4,3145.7z M1834.5,1516.5c34.5-21.1,76.7-59.4,95.8-88.2c216.6-302.8,352.7-427.4,592.3-536.7c193.6-90.1,318.2-115,546.3-113.1c161,1.9,231.9,11.5,354.6,51.7c285.6,93.9,521.3,272.2,690,521.3c44.1,63.3,107.3,134.2,141.8,157.2c88.2,59.4,222.3,59.4,308.6,1.9c107.3-74.7,143.8-139.9,143.8-260.7c0-99.7-9.6-122.7-95.8-253c-178.2-268.3-431.3-490.7-732.2-640.2C3093.8-36,2127.8,178.7,1581.5,868.7c-164.8,208.9-207,297.1-193.6,410.2C1410.9,1495.5,1656.3,1623.9,1834.5,1516.5z"/><path d="M6710.6,1100.6c-15.3-1.9-76.7-9.6-134.2-17.2l-105.4-11.5l-65.2-191.7c-337.3-992.9-1219-1863-2217.6-2183.1c-161-51.7-155.3-36.4-174.4-412.1c-30.7-626.8,149.5-1255.4,517.5-1801.7c157.2-233.8,525.2-598,760.9-755.2c348.8-233.8,760.9-402.5,1150-475.3c251.1-46,783.9-46,1035,1.9c596.1,109.2,1128.9,391,1562.1,826.1c348.8,346.9,565.4,697.7,718.8,1157.7c111.2,335.4,141.8,529,141.8,921.9s-28.8,588.5-141.8,922c-153.3,460-369.9,810.8-718.8,1157.7c-477.3,479.2-1033.1,757.1-1690.5,843.3C7166.8,1108.3,6789.2,1117.9,6710.6,1100.6z M6235.3-783.5c141.8-90.1,207-281.8,147.6-437c-26.8-72.9-128.4-176.3-203.2-208.9c-233.8-99.6-504.1,78.6-504.1,331.6c0,222.3,145.7,368,366.1,369.9C6126-727.9,6164.3-739.4,6235.3-783.5z M8048.4-764.3c262.6-134.2,262.6-523.2,0-651.7c-149.5-70.9-297.1-49.8-415.9,61.3c-122.7,116.9-151.4,276-76.7,431.2C7640.2-749,7872.1-674.2,8048.4-764.3z M7256.9-2148.2c358.4-44.1,676.6-174.4,941.1-383.4c151.4-120.8,348.8-369.9,400.6-504.1c57.5-151.4,17.3-285.5-113.1-383.3c-38.3-30.7-80.5-40.2-164.8-40.2c-138,0-193.6,36.4-283.7,184c-120.8,199.4-300.9,352.7-521.3,438.9c-126.5,49.8-392.9,95.8-555.8,95.8s-429.3-46-555.8-95.8c-216.6-86.3-421.7-256.9-507.9-421.7c-24.9-47.9-65.2-105.4-90.1-128.4c-184-170.6-481.1-59.4-507.9,193.6c-28.8,239.6,333.5,661.2,737.9,862.5C6375.2-2161.6,6819.9-2094.5,7256.9-2148.2z"/></g></g>
</svg>