<?xml version="1.0" encoding="utf-8"?>
<!-- Svg Vector Icons : http://www.onlinewebfonts.com/icon -->
<!DOCTYPE svg PUBLIC "-//W3C//DTD SVG 1.1//EN" "http://www.w3.org/Graphics/SVG/1.1/DTD/svg11.dtd">
<svg version="1.1" xmlns="http://www.w3.org/2000/svg" xmlns:xlink="http://www.w3.org/1999/xlink" x="0px" y="0px" viewBox="0 0 1000 1000" enable-background="new 0 0 1000 1000" xml:space="preserve">
<metadata> Svg Vector Icons : http://www.onlinewebfonts.com/icon </metadata>
<g><path d="M500,10C229.4,10,10,229.4,10,500c0,270.6,219.4,490,490,490c270.6,0,490-219.4,490-490C990,229.4,770.6,10,500,10z M442,696.4c-11.2,1.3-22.4,2-33.3,2c-12.1,0-24-0.8-35.6-2.3c-47,51.1-96,64.8-123.5,64.8c-17.6,0-26.3-5.7-19.9-10.7c40-31.8,48.6-62.8,46-87.1c-51.5-30.8-87.1-79.6-93.6-137.7c-12.2-109.9,84.3-211.5,215.6-226.9c11.3-1.3,22.5-2,33.6-2c117,0,215,72.6,226.2,173C669.7,579.4,573.2,681,442,696.4z M817.9,421.6c-6.5,58.1-42.1,106.9-93.5,137.7c-2.5,24.3,6,55.4,46,87.1c14.3,11.4-47.4,25.6-114.8-27.5c32.7-46.3,47.4-100.8,41.5-154.3c-6.7-60.1-38.6-114.5-89.8-153.3c-48.3-36.6-110.9-56.7-176.1-56.7c-10.9,0-21.8,0.7-32.8,1.8c48.7-46.1,123.5-71.2,203.9-61.7C733.6,210.1,830.2,311.7,817.9,421.6z"/></g>
</svg>